Coordinates
version=1
nRows=7
nColumns=42
inDegrees=yes

Units are S.I. units (second, meters, Newtons, ...)
If the header above contains a line with 'inDegrees', this indicates whether rotational values are in degrees (yes) or radians (no).

endheader
time	pelvis_tilt	pelvis_list	pelvis_rotation	pelvis_tx	pelvis_ty	pelvis_tz	hip_flexion_r	hip_adduction_r	hip_rotation_r	knee_angle_r	knee_adduction_r	knee_angle_r_beta	ankle_angle_r	subtalar_angle_r	mtp_angle_r	hip_flexion_l	hip_adduction_l	hip_rotation_l	knee_angle_l	knee_adduction_l	knee_angle_l_beta	ankle_angle_l	subtalar_angle_l	mtp_angle_l	lumbar_extension	lumbar_bending	lumbar_rotation	arm_flex_r	arm_add_r	arm_rot_r	elbow_flex_r	pro_sup_r	wrist_flex_r	wrist_dev_r	arm_flex_l	arm_add_l	arm_rot_l	elbow_flex_l	pro_sup_l	wrist_flex_l	wrist_dev_l
      0.00000000	     -3.92046667	     -3.16208946	      0.65712316	     -1.38523061	      0.86621385	     -0.37929722	      1.12194142	      3.66801155	      0.41952706	      3.64466968	      8.26814069	      0.06361149	      7.38980525	      0.39557242	     -9.56042003	     24.40067891	     -6.88003035	      4.62487637	     61.94062376	      9.18636716	      1.08106783	      6.74381291	    -15.13375996	     -9.56042003	     -3.63652610	      1.54277104	      3.44558127	     -5.91629553	    -20.72498045	      9.15228324	     42.27430488	     90.00000001	      0.00000000	      0.00000000	     -3.61376538	     -9.81902031	    -10.45116281	     43.25649804	     90.00000001	      0.00000000	      0.00000000
      0.01000000	     -3.98141013	     -3.20370916	      0.71231355	     -1.37509114	      0.86536014	     -0.37847077	      0.45387558	      3.91230101	      0.26017493	      3.71357809	      8.06633275	      0.06481416	      7.92700228	      0.51324788	     -9.53031273	     25.93381197	     -6.89759158	      4.41977827	     60.13174285	      9.13830063	      1.04949690	      7.21146678	    -14.92736072	     -9.53031273	     -3.62303040	      1.47086098	      3.56351141	     -5.06258392	    -20.60802650	      9.09280045	     42.84503489	     90.00000001	      0.00000000	      0.00000000	     -3.99030955	     -9.91865063	    -10.56578536	     42.99289219	     90.00000001	      0.00000000	      0.00000000
      0.02000000	     -4.02329510	     -3.20051395	      0.74771218	     -1.36496181	      0.86442005	     -0.37773627	     -0.28761466	      4.07478672	      0.24449697	      3.65018814	      7.92536982	      0.06370780	      8.54447745	      0.66856862	     -9.50005624	     27.31466829	     -6.88410015	      4.21197033	     58.12194908	      9.16936499	      1.01441938	      7.76235981	    -14.86707600	     -9.50005624	     -3.64790707	      1.35715827	      3.69330261	     -4.17085284	    -20.50968046	      9.03259241	     43.39699459	     90.00000001	      0.00000000	      0.00000000	     -4.29683356	    -10.00100519	    -10.75967221	     42.68447729	     90.00000001	      0.00000000	      0.00000000
      0.03000000	     -3.60144394	     -2.81886017	      0.69486290	     -1.35447241	      0.86410348	     -0.37730010	     -1.74232316	      3.67898848	      0.75240246	      3.18899611	      8.04135458	      0.05565848	      9.16519408	      0.71564791	     -9.42095958	     27.78433891	     -6.50929424	      4.03249272	     55.49692862	      9.51237782	      0.96860413	      8.26772196	    -15.30971723	     -9.42095958	     -4.20574408	      0.85690071	      3.85432467	     -3.19113409	    -20.35604219	      8.99949850	     43.83569822	     90.00000001	      0.00000000	      0.00000000	     -4.45592386	    -10.00256258	    -11.38528117	     42.20070367	     90.00000001	      0.00000000	      0.00000000
      0.04000000	     -3.37653664	     -2.65859450	      0.61589747	     -1.34401395	      0.86340644	     -0.37676320	     -2.87191226	      3.59965561	      1.05496003	      2.96123255	      7.99969920	      0.05168326	      9.54485607	      0.43045363	     -9.29648810	     28.47446129	     -6.41042774	      3.11357922	     52.88573277	      9.20758045	      0.92303016	      8.60958512	    -15.19507404	     -9.29648810	     -4.52323317	      0.60082143	      4.02826652	     -2.29422722	    -20.24481534	      9.00738756	     44.38666385	     90.00000001	      0.00000000	      0.00000000	     -4.74413218	    -10.08006498	    -11.63422268	     41.84494455	     90.00000001	      0.00000000	      0.00000000
      0.05000000	     -3.52760114	     -2.83578442	      0.59050720	     -1.33381965	      0.86213116	     -0.37612102	     -3.41476897	      3.95925443	      0.96935210	      3.09158034	      7.82453596	      0.05395826	      9.99615016	      0.54419597	     -9.26584030	     29.62239267	     -6.68353595	      2.40993887	     50.28104884	      8.97641764	      0.87756985	      8.94087056	    -14.71787746	     -9.26584030	     -4.43550491	      0.71760421	      4.19601690	     -1.51470266	    -20.20470694	      9.00349904	     44.93726122	     90.00000001	      0.00000000	      0.00000000	     -5.04711840	    -10.12421631	    -11.77428602	     41.56564803	     90.00000001	      0.00000000	      0.00000000
      0.06000000	     -3.29683697	     -2.61733355	      0.29498480	     -1.32327691	      0.86141669	     -0.37555318	     -4.50332379	      3.69913382	      1.42699980	      2.95915307	      7.97084666	      0.05164696	     10.58063526	      0.69155820	     -9.21140356	     29.85742807	     -6.70213249	      1.43636458	     47.01701555	      9.00742596	      0.82060173	      9.49746960	    -14.17906395	     -9.21140356	     -4.75456930	      0.41729835	      4.55003426	     -0.62169377	    -20.11560402	      9.11781342	     45.41485643	     90.00000001	      0.00000000	      0.00000000	     -5.20235627	    -10.08567078	    -12.29107274	     40.99976136	     90.00000001	      0.00000000	      0.00000000
